<svg xmlns="http://www.w3.org/2000/svg" width="268" height="188" viewBox="0 0 268 188">
  <g id="Group_12" data-name="Group 12" transform="translate(-230 -451)">
    <path id="Path_4" data-name="Path 4" d="M3.867-12.376V-32.127h.44l13.476,15.14v-15.14h2v19.751h-.454L5.96-27.332v14.956Zm23.1-14.609H28.89v6.821a14.209,14.209,0,0,0,.276,3.437A3.839,3.839,0,0,0,30.744-14.6a4.881,4.881,0,0,0,2.778.779,4.776,4.776,0,0,0,2.737-.759,3.893,3.893,0,0,0,1.551-1.994,13.747,13.747,0,0,0,.29-3.585v-6.821h1.968v7.17a11.09,11.09,0,0,1-.723,4.552,5.43,5.43,0,0,1-2.175,2.4A7.009,7.009,0,0,1,33.529-12a7.084,7.084,0,0,1-3.655-.866,5.386,5.386,0,0,1-2.189-2.417,11.544,11.544,0,0,1-.723-4.666Zm35.126,0v14.609h-1.9v-2.511a8.224,8.224,0,0,1-2.719,2.162,7.5,7.5,0,0,1-3.3.725,7.4,7.4,0,0,1-5.43-2.249,7.445,7.445,0,0,1-2.251-5.472,7.311,7.311,0,0,1,2.271-5.4,7.5,7.5,0,0,1,5.465-2.242,7.212,7.212,0,0,1,3.338.765,7.537,7.537,0,0,1,2.622,2.3v-2.685Zm-7.7,1.437a5.922,5.922,0,0,0-2.97.771,5.723,5.723,0,0,0-2.166,2.166,5.816,5.816,0,0,0-.8,2.951,5.827,5.827,0,0,0,.811,2.951,5.83,5.83,0,0,0,2.179,2.193,5.8,5.8,0,0,0,2.936.785,6.134,6.134,0,0,0,3-.778,5.512,5.512,0,0,0,2.179-2.106,5.893,5.893,0,0,0,.763-2.991A5.738,5.738,0,0,0,58.6-23.845,5.742,5.742,0,0,0,54.387-25.548Zm14.857-1.437h1.927v2.618a7.992,7.992,0,0,1,2.56-2.249,6.418,6.418,0,0,1,3.056-.745,5.408,5.408,0,0,1,2.98.832,4.991,4.991,0,0,1,1.92,2.242,11.59,11.59,0,0,1,.619,4.391v7.519H80.38v-6.969a16.756,16.756,0,0,0-.214-3.37A3.683,3.683,0,0,0,78.881-24.9a3.948,3.948,0,0,0-2.478-.732A4.825,4.825,0,0,0,73.271-24.5a5.271,5.271,0,0,0-1.824,2.793,18.957,18.957,0,0,0-.275,3.974v5.357H69.244Zm34.548,3.035-1.528.926a6.458,6.458,0,0,0-5.4-2.565,6.338,6.338,0,0,0-4.544,1.717A5.537,5.537,0,0,0,90.509-19.7a5.81,5.81,0,0,0,.832,3,5.766,5.766,0,0,0,2.282,2.186,6.769,6.769,0,0,0,3.252.778,6.636,6.636,0,0,0,5.39-2.565l1.528.98a7.165,7.165,0,0,1-2.884,2.447,9.406,9.406,0,0,1-4.123.87,8.259,8.259,0,0,1-5.892-2.2,7.081,7.081,0,0,1-2.34-5.357A7.509,7.509,0,0,1,89.649-23.5a7.627,7.627,0,0,1,3.008-2.84,8.953,8.953,0,0,1,4.281-1.02,9.351,9.351,0,0,1,2.87.443,8.058,8.058,0,0,1,2.347,1.155A6.333,6.333,0,0,1,103.793-23.95Zm19.131,6.727,1.624.832A8.656,8.656,0,0,1,122.7-13.92a7.364,7.364,0,0,1-2.356,1.43,8.4,8.4,0,0,1-2.962.49,7.244,7.244,0,0,1-5.732-2.343,7.794,7.794,0,0,1-2.067-5.3,7.689,7.689,0,0,1,1.75-4.955,7.221,7.221,0,0,1,5.938-2.766,7.459,7.459,0,0,1,6.117,2.833,7.782,7.782,0,0,1,1.653,4.995H111.567a5.869,5.869,0,0,0,1.668,4.173,5.385,5.385,0,0,0,3.983,1.628,6.546,6.546,0,0,0,2.226-.388,5.892,5.892,0,0,0,1.84-1.03A8.8,8.8,0,0,0,122.924-17.223Zm0-3.934a6.166,6.166,0,0,0-1.123-2.4,5.3,5.3,0,0,0-1.95-1.45,6.1,6.1,0,0,0-2.55-.551,5.572,5.572,0,0,0-3.79,1.383,6.215,6.215,0,0,0-1.75,3.021Zm19.183-10.97h2.024v19.751h-2.024Zm9.165,5.143H153.2v2.618a7.992,7.992,0,0,1,2.56-2.249,6.418,6.418,0,0,1,3.056-.745,5.408,5.408,0,0,1,2.98.832,4.991,4.991,0,0,1,1.92,2.242,11.59,11.59,0,0,1,.619,4.391v7.519h-1.927v-6.969a16.756,16.756,0,0,0-.214-3.37,3.683,3.683,0,0,0-1.285-2.182,3.948,3.948,0,0,0-2.478-.732A4.825,4.825,0,0,0,155.3-24.5a5.271,5.271,0,0,0-1.824,2.793,18.958,18.958,0,0,0-.275,3.974v5.357h-1.927Zm26.179-5.639v1.84a4.866,4.866,0,0,0-1.817-.443,1.8,1.8,0,0,0-.936.222.988.988,0,0,0-.468.51,6.893,6.893,0,0,0-.1,1.537l0,1.974h3.126v1.625H174.13l-.011,12.984h-1.927V-25.36h-1.968v-1.625h1.968v-2.283a6.055,6.055,0,0,1,.3-2.242,2.324,2.324,0,0,1,1-1.081,3.372,3.372,0,0,1,1.714-.41A8.33,8.33,0,0,1,177.451-32.624Zm12.593,5.263a7.5,7.5,0,0,1,5.736,2.444,7.5,7.5,0,0,1,2.068,5.277,7.5,7.5,0,0,1-2.186,5.351A7.425,7.425,0,0,1,190.043-12a7.442,7.442,0,0,1-5.633-2.289,7.5,7.5,0,0,1-2.186-5.351,7.481,7.481,0,0,1,2.068-5.263A7.5,7.5,0,0,1,190.043-27.361Zm-.007,1.84a5.628,5.628,0,0,0-4.13,1.732,5.716,5.716,0,0,0-1.727,4.189,5.827,5.827,0,0,0,.787,2.954,5.509,5.509,0,0,0,2.127,2.115,5.952,5.952,0,0,0,2.942.745,5.952,5.952,0,0,0,2.942-.745,5.509,5.509,0,0,0,2.127-2.115,5.828,5.828,0,0,0,.787-2.954,5.7,5.7,0,0,0-1.734-4.189A5.634,5.634,0,0,0,190.036-25.521Zm15.876-6.888h1.927v5.425H210.9v1.625h-3.056v12.984h-1.927V-25.36h-2.629v-1.625h2.629Zm23.3,15.186,1.624.832a8.655,8.655,0,0,1-1.846,2.471,7.364,7.364,0,0,1-2.356,1.43,8.4,8.4,0,0,1-2.962.49,7.244,7.244,0,0,1-5.732-2.343,7.794,7.794,0,0,1-2.067-5.3,7.689,7.689,0,0,1,1.75-4.955,7.221,7.221,0,0,1,5.938-2.766,7.459,7.459,0,0,1,6.117,2.833,7.781,7.781,0,0,1,1.653,4.995H217.858a5.87,5.87,0,0,0,1.668,4.173,5.385,5.385,0,0,0,3.983,1.628,6.546,6.546,0,0,0,2.226-.388,5.891,5.891,0,0,0,1.84-1.03A8.8,8.8,0,0,0,229.214-17.223Zm0-3.934a6.166,6.166,0,0,0-1.123-2.4,5.3,5.3,0,0,0-1.95-1.45,6.1,6.1,0,0,0-2.55-.551,5.572,5.572,0,0,0-3.79,1.383,6.215,6.215,0,0,0-1.75,3.021Zm23.068-2.793-1.528.926a6.458,6.458,0,0,0-5.4-2.565,6.338,6.338,0,0,0-4.544,1.717A5.537,5.537,0,0,0,239-19.7a5.811,5.811,0,0,0,.832,3,5.766,5.766,0,0,0,2.282,2.186,6.769,6.769,0,0,0,3.252.778,6.636,6.636,0,0,0,5.39-2.565l1.528.98A7.165,7.165,0,0,1,249.4-12.87a9.406,9.406,0,0,1-4.123.87,8.259,8.259,0,0,1-5.892-2.2,7.081,7.081,0,0,1-2.34-5.357,7.509,7.509,0,0,1,1.094-3.941,7.627,7.627,0,0,1,3.008-2.84,8.953,8.953,0,0,1,4.281-1.02,9.352,9.352,0,0,1,2.87.443,8.059,8.059,0,0,1,2.347,1.155A6.333,6.333,0,0,1,252.282-23.95Zm6.522-8.674h1.927v8.258a8.128,8.128,0,0,1,2.574-2.249,6.39,6.39,0,0,1,3.042-.745,5.408,5.408,0,0,1,2.98.832,5,5,0,0,1,1.92,2.236,11.583,11.583,0,0,1,.619,4.4v7.519H269.94v-6.969a17.388,17.388,0,0,0-.206-3.37,3.8,3.8,0,0,0-1.3-2.182,3.918,3.918,0,0,0-2.471-.732A4.824,4.824,0,0,0,262.83-24.5a5.271,5.271,0,0,0-1.824,2.793,18.84,18.84,0,0,0-.275,3.974v5.357H258.8Z" transform="translate(226.133 651)" fill="#f9d342"/>
    <g id="Group_11" data-name="Group 11" transform="translate(279.705 451.155)">
      <path id="Polygon_2" data-name="Polygon 2" d="M114.2,0a20,20,0,0,1,17.5,10.326l30.947,56a20,20,0,0,1,0,19.347l-30.947,56A20,20,0,0,1,114.2,152H53.8a20,20,0,0,1-17.5-10.326l-30.947-56a20,20,0,0,1,0-19.347l30.947-56A20,20,0,0,1,53.8,0Z" transform="translate(0.295 -0.156)" fill="#f9d342"/>
      <g id="Group_2" data-name="Group 2" transform="translate(47.218 30.338)">
        <path id="Path_1" data-name="Path 1" d="M6239.109,1234.954l67.5,67.854v-67.854h-13.57v34.8l-34.449-34.8Z" transform="translate(-6231.971 -1218.891)" fill="#2e2d2b"/>
        <path id="Path_2" data-name="Path 2" d="M6306.613,1302.807l-67.506-67.854v67.854h13.571v-34.8l34.448,34.8Z" transform="translate(-6239.107 -1211.752)" fill="#2e2d2b"/>
        <path id="Polygon_1" data-name="Polygon 1" d="M5.8,0l4.651,2.3L11.6,7.46,8.382,11.6H3.219L0,7.46,1.149,2.3Z" transform="translate(62.465)" fill="#2e2d2b"/>
      </g>
    </g>
  </g>
</svg>
