<svg xmlns="http://www.w3.org/2000/svg" width="640.737" height="152" viewBox="0 0 640.737 152">
  <g id="Group_15" data-name="Group 15" transform="translate(-48 -171)">
    <g id="Group_13" data-name="Group 13" transform="translate(0 -8)">
      <path id="Path_5" data-name="Path 5" d="M2.325-.152V-16.421H3.5V-.152Zm23.738,0V-8a3.746,3.746,0,0,0-.792-2.654,3.256,3.256,0,0,0-2.456-.829,4.331,4.331,0,0,0-3.277,1.1A5.058,5.058,0,0,0,18.5-6.829V-.152H17.363v-12.1h.964l.218,1.658h.069q1.217-1.892,4.327-1.892,4.247,0,4.247,4.418V-.152Zm23.268,0V-8a3.746,3.746,0,0,0-.792-2.654,3.256,3.256,0,0,0-2.456-.829,4.331,4.331,0,0,0-3.277,1.1,5.058,5.058,0,0,0-1.039,3.555V-.152H40.63v-12.1h.964l.218,1.658h.069q1.217-1.892,4.327-1.892,4.247,0,4.247,4.418V-.152ZM74.217-6.217a6.714,6.714,0,0,1-1.481,4.624A5.188,5.188,0,0,1,68.65.07,5.417,5.417,0,0,1,65.757-.7a4.955,4.955,0,0,1-1.917-2.2,7.8,7.8,0,0,1-.666-3.316,6.671,6.671,0,0,1,1.481-4.613,5.178,5.178,0,0,1,4.063-1.653,5.078,5.078,0,0,1,4.034,1.675A6.738,6.738,0,0,1,74.217-6.217Zm-9.848,0A6.022,6.022,0,0,0,65.5-2.328a3.879,3.879,0,0,0,3.2,1.4,3.879,3.879,0,0,0,3.2-1.4,6.022,6.022,0,0,0,1.131-3.889A5.929,5.929,0,0,0,71.881-10.1a3.933,3.933,0,0,0-3.208-1.38,3.873,3.873,0,0,0-3.185,1.374A6.009,6.009,0,0,0,64.369-6.217ZM89.806-.152l-4.821-12.1h1.171l3.225,8.224a24.8,24.8,0,0,1,.964,2.76h.069q.471-1.513.964-2.782l3.225-8.2h1.171L90.953-.152Zm25.035,0-.287-1.914h-.092a5.875,5.875,0,0,1-1.934,1.653,5.3,5.3,0,0,1-2.347.484,4.142,4.142,0,0,1-2.858-.912A3.213,3.213,0,0,1,106.3-3.368a3.094,3.094,0,0,1,1.521-2.749,8.474,8.474,0,0,1,4.4-1.035l2.376-.067v-.8a4.022,4.022,0,0,0-.723-2.6,2.849,2.849,0,0,0-2.33-.879,7.985,7.985,0,0,0-3.593.935l-.425-.957a9.754,9.754,0,0,1,4.063-.935,4.126,4.126,0,0,1,3.07,1.035A4.456,4.456,0,0,1,115.679-8.2V-.152ZM110.25-.931A4.36,4.36,0,0,0,113.4-2.038a4.064,4.064,0,0,0,1.154-3.077V-6.306l-2.181.089a8.452,8.452,0,0,0-3.747.8,2.274,2.274,0,0,0-1.119,2.1,2.221,2.221,0,0,0,.717,1.764A2.976,2.976,0,0,0,110.25-.931Zm22.166.022a8.782,8.782,0,0,0,1.882-.178V-.2a6.2,6.2,0,0,1-1.905.267,3.157,3.157,0,0,1-2.439-.857,3.894,3.894,0,0,1-.786-2.693v-7.812h-1.848v-.645l1.848-.5.574-2.737h.585v2.927h3.661v.957h-3.661v7.656a3.412,3.412,0,0,0,.505,2.059A1.858,1.858,0,0,0,132.415-.909Zm15.118.757H146.4v-12.1h1.136Zm-1.3-15.457q0-1.068.723-1.068a.648.648,0,0,1,.557.278,1.334,1.334,0,0,1,.2.79,1.366,1.366,0,0,1-.2.79.641.641,0,0,1-.557.289Q146.237-14.53,146.237-15.609Zm25.2,9.392a6.714,6.714,0,0,1-1.481,4.624A5.188,5.188,0,0,1,165.866.07,5.417,5.417,0,0,1,162.974-.7a4.955,4.955,0,0,1-1.917-2.2,7.8,7.8,0,0,1-.666-3.316,6.671,6.671,0,0,1,1.481-4.613,5.178,5.178,0,0,1,4.063-1.653,5.078,5.078,0,0,1,4.034,1.675A6.738,6.738,0,0,1,171.433-6.217Zm-9.848,0a6.022,6.022,0,0,0,1.131,3.889,3.879,3.879,0,0,0,3.2,1.4,3.879,3.879,0,0,0,3.2-1.4,6.022,6.022,0,0,0,1.131-3.889A5.929,5.929,0,0,0,169.1-10.1a3.933,3.933,0,0,0-3.208-1.38,3.873,3.873,0,0,0-3.185,1.374A6.009,6.009,0,0,0,161.585-6.217ZM192.99-.152V-8a3.746,3.746,0,0,0-.792-2.654,3.256,3.256,0,0,0-2.456-.829,4.331,4.331,0,0,0-3.277,1.1,5.058,5.058,0,0,0-1.039,3.555V-.152H184.29v-12.1h.964l.218,1.658h.069q1.217-1.892,4.327-1.892,4.247,0,4.247,4.418V-.152Zm29.4-4.128a4.118,4.118,0,0,1,.844-2.615,9.806,9.806,0,0,1,3.151-2.281l-.861-.912a6.189,6.189,0,0,1-1.125-1.547,3.576,3.576,0,0,1-.367-1.58,3.148,3.148,0,0,1,1.1-2.526,4.386,4.386,0,0,1,2.944-.935,4.152,4.152,0,0,1,2.818.9,3.126,3.126,0,0,1,1.039,2.493,3.29,3.29,0,0,1-.8,2.142,10.706,10.706,0,0,1-2.9,2.164l5.188,5.085A8.908,8.908,0,0,0,234.6-5.638a11.87,11.87,0,0,0,.861-2.237h1.1a12.087,12.087,0,0,1-2.4,4.741l3.053,2.982h-1.549l-2.215-2.192a9.887,9.887,0,0,1-1.882,1.463,7.316,7.316,0,0,1-1.808.707,9.253,9.253,0,0,1-2.232.245,5.7,5.7,0,0,1-3.77-1.146A3.947,3.947,0,0,1,222.389-4.281Zm5.222,3.35a7.249,7.249,0,0,0,2.692-.484,7.442,7.442,0,0,0,2.4-1.63l-5.544-5.4a13.908,13.908,0,0,0-2.255,1.363,3.592,3.592,0,0,0-1.01,1.219,3.508,3.508,0,0,0-.316,1.536,3.087,3.087,0,0,0,1.067,2.493A4.452,4.452,0,0,0,227.612-.931Zm-2.353-12.308a3.04,3.04,0,0,0,.459,1.625,10.48,10.48,0,0,0,1.745,1.936A8.759,8.759,0,0,0,230-11.447a2.8,2.8,0,0,0,.712-1.881,2.193,2.193,0,0,0-.712-1.7,2.747,2.747,0,0,0-1.928-.651,3.06,3.06,0,0,0-2.06.645A2.235,2.235,0,0,0,225.259-13.239Zm46.926-2.393a6.44,6.44,0,0,0-4.97,1.959A7.588,7.588,0,0,0,265.4-8.309a7.869,7.869,0,0,0,1.71,5.408A6.2,6.2,0,0,0,272-.976,13.631,13.631,0,0,0,275.88-1.5v1a13.026,13.026,0,0,1-4.155.568,7.179,7.179,0,0,1-5.567-2.214,8.814,8.814,0,0,1-2.032-6.187,9.456,9.456,0,0,1,.97-4.373,6.893,6.893,0,0,1,2.789-2.921,8.442,8.442,0,0,1,4.23-1.029,10.424,10.424,0,0,1,4.4.89l-.471,1.024A8.733,8.733,0,0,0,272.184-15.631Zm21.466,3.149a10.061,10.061,0,0,1,1.7.156l-.218,1.057a6.846,6.846,0,0,0-1.618-.189,3.174,3.174,0,0,0-2.617,1.313,5.239,5.239,0,0,0-1.022,3.316V-.152h-1.136v-12.1h.964l.115,2.181h.08a5.178,5.178,0,0,1,1.641-1.875A3.937,3.937,0,0,1,293.65-12.482ZM312.326.07a5.525,5.525,0,0,1-4.241-1.625,6.4,6.4,0,0,1-1.521-4.551,6.95,6.95,0,0,1,1.469-4.635,4.913,4.913,0,0,1,3.96-1.742,4.334,4.334,0,0,1,3.478,1.491,6.031,6.031,0,0,1,1.274,4.051v.89h-8.987a5.606,5.606,0,0,0,1.2,3.806,4.288,4.288,0,0,0,3.369,1.313,10.769,10.769,0,0,0,1.877-.145,11.669,11.669,0,0,0,2.049-.623v1a9.346,9.346,0,0,1-1.951.606A11.161,11.161,0,0,1,312.326.07ZM311.993-11.5a3.8,3.8,0,0,0-2.892,1.152,5.338,5.338,0,0,0-1.274,3.322h7.713a5.159,5.159,0,0,0-.941-3.288A3.142,3.142,0,0,0,311.993-11.5ZM337.166-.152l-.287-1.914h-.092a5.874,5.874,0,0,1-1.934,1.653,5.3,5.3,0,0,1-2.347.484,4.142,4.142,0,0,1-2.858-.912,3.213,3.213,0,0,1-1.022-2.526,3.094,3.094,0,0,1,1.521-2.749,8.474,8.474,0,0,1,4.4-1.035l2.376-.067v-.8a4.022,4.022,0,0,0-.723-2.6,2.849,2.849,0,0,0-2.33-.879,7.985,7.985,0,0,0-3.593.935l-.425-.957a9.754,9.754,0,0,1,4.063-.935,4.126,4.126,0,0,1,3.07,1.035A4.456,4.456,0,0,1,338-8.2V-.152Zm-4.591-.779a4.36,4.36,0,0,0,3.151-1.107,4.064,4.064,0,0,0,1.154-3.077V-6.306l-2.181.089a8.452,8.452,0,0,0-3.747.8,2.274,2.274,0,0,0-1.119,2.1,2.221,2.221,0,0,0,.717,1.764A2.976,2.976,0,0,0,332.575-.931Zm22.166.022a8.782,8.782,0,0,0,1.882-.178V-.2a6.2,6.2,0,0,1-1.905.267,3.157,3.157,0,0,1-2.439-.857,3.894,3.894,0,0,1-.786-2.693v-7.812h-1.848v-.645l1.848-.5.574-2.737h.585v2.927h3.661v.957h-3.661v7.656a3.411,3.411,0,0,0,.505,2.059A1.858,1.858,0,0,0,354.741-.909Zm15.118.757h-1.136v-12.1h1.136Zm-1.3-15.457q0-1.068.723-1.068a.648.648,0,0,1,.557.278,1.334,1.334,0,0,1,.2.79,1.366,1.366,0,0,1-.2.79.641.641,0,0,1-.557.289Q368.563-14.53,368.563-15.609ZM386.172-.152l-4.821-12.1h1.171l3.225,8.224a24.8,24.8,0,0,1,.964,2.76h.069q.471-1.513.964-2.782l3.225-8.2h1.171l-4.821,12.1Zm18.6,0h-1.136v-12.1h1.136Zm-1.3-15.457q0-1.068.723-1.068a.648.648,0,0,1,.557.278,1.334,1.334,0,0,1,.2.79,1.366,1.366,0,0,1-.2.79.641.641,0,0,1-.557.289Q403.471-14.53,403.471-15.609Zm18.172,14.7a8.782,8.782,0,0,0,1.882-.178V-.2A6.2,6.2,0,0,1,421.62.07a3.157,3.157,0,0,1-2.439-.857,3.894,3.894,0,0,1-.786-2.693v-7.812h-1.848v-.645l1.848-.5.574-2.737h.585v2.927h3.661v.957h-3.661v7.656a3.411,3.411,0,0,0,.505,2.059A1.858,1.858,0,0,0,421.642-.909Zm11.893-11.339h1.171l2.64,6.788q1.205,3.127,1.527,4.218h.069q.482-1.436,1.572-4.284l2.64-6.721h1.171l-5.59,14.055A10.815,10.815,0,0,1,437.6,4.121a3.018,3.018,0,0,1-1.073.9,3.356,3.356,0,0,1-1.486.3,5.267,5.267,0,0,1-1.458-.234V4.132a5.536,5.536,0,0,0,1.435.178,1.977,1.977,0,0,0,1.033-.267,2.531,2.531,0,0,0,.809-.829,10.747,10.747,0,0,0,.838-1.78q.476-1.219.614-1.586Z" transform="translate(243.675 293.677)" fill="#fff" stroke="#fff" stroke-width="1"/>
      <g id="Group_6" data-name="Group 6" transform="translate(47.705 179.155)">
        <path id="Polygon_2" data-name="Polygon 2" d="M114.2,0a20,20,0,0,1,17.5,10.326l30.947,56a20,20,0,0,1,0,19.347l-30.947,56A20,20,0,0,1,114.2,152H53.8a20,20,0,0,1-17.5-10.326l-30.947-56a20,20,0,0,1,0-19.347l30.947-56A20,20,0,0,1,53.8,0Z" transform="translate(0.295 -0.156)" fill="#f9d342"/>
        <g id="Group_2" data-name="Group 2" transform="translate(47.218 30.338)">
          <path id="Path_1" data-name="Path 1" d="M6239.109,1234.954l67.5,67.854v-67.854h-13.57v34.8l-34.449-34.8Z" transform="translate(-6231.971 -1218.891)" fill="#2e2d2b"/>
          <path id="Path_2" data-name="Path 2" d="M6306.613,1302.807l-67.506-67.854v67.854h13.571v-34.8l34.448,34.8Z" transform="translate(-6239.107 -1211.752)" fill="#2e2d2b"/>
          <path id="Polygon_1" data-name="Polygon 1" d="M5.8,0l4.651,2.3L11.6,7.46,8.382,11.6H3.219L0,7.46,1.149,2.3Z" transform="translate(62.465)" fill="#2e2d2b"/>
        </g>
      </g>
    </g>
    <g id="Group_14" data-name="Group 14">
      <path id="Path_3" data-name="Path 3" d="M23.115-159.93v-35.74H23.9l23.992,27.4v-27.4h3.554v35.74h-.809l-23.8-27.063v27.063Zm38.608-26.435h3.431v12.343a26.119,26.119,0,0,0,.491,6.22,6.938,6.938,0,0,0,2.81,3.839,8.587,8.587,0,0,0,4.945,1.409,8.4,8.4,0,0,0,4.872-1.373,7.03,7.03,0,0,0,2.761-3.608,25.269,25.269,0,0,0,.515-6.487v-12.343h3.5v12.974q0,5.467-1.287,8.237a9.77,9.77,0,0,1-3.872,4.337,12.317,12.317,0,0,1-6.482,1.567,12.449,12.449,0,0,1-6.507-1.567,9.692,9.692,0,0,1-3.9-4.373q-1.287-2.806-1.287-8.443Zm60.028,0v26.435h-3.382v-4.543a14.682,14.682,0,0,1-4.84,3.912,13.182,13.182,0,0,1-5.869,1.312,13.074,13.074,0,0,1-9.668-4.07,13.584,13.584,0,0,1-4.007-9.9,13.338,13.338,0,0,1,4.044-9.767,13.241,13.241,0,0,1,9.729-4.058,12.67,12.67,0,0,1,5.943,1.385,13.486,13.486,0,0,1,4.669,4.155v-4.859Zm-13.712,2.6a10.411,10.411,0,0,0-5.287,1.4,10.274,10.274,0,0,0-3.855,3.92,10.657,10.657,0,0,0-1.432,5.339,10.675,10.675,0,0,0,1.444,5.339,10.468,10.468,0,0,0,3.88,3.968,10.205,10.205,0,0,0,5.226,1.42,10.784,10.784,0,0,0,5.336-1.408,9.888,9.888,0,0,0,3.88-3.81,10.8,10.8,0,0,0,1.359-5.412,10.472,10.472,0,0,0-3.048-7.669A10.138,10.138,0,0,0,108.04-183.765Zm23.941-2.6h3.431v4.738a14.3,14.3,0,0,1,4.558-4.07,11.278,11.278,0,0,1,5.441-1.348,9.513,9.513,0,0,1,5.306,1.506,8.993,8.993,0,0,1,3.419,4.058q1.1,2.551,1.1,7.945v13.606h-3.431v-12.61a30.806,30.806,0,0,0-.382-6.1,6.686,6.686,0,0,0-2.287-3.948,6.95,6.95,0,0,0-4.412-1.324,8.506,8.506,0,0,0-5.577,2.041,9.552,9.552,0,0,0-3.248,5.054,34.853,34.853,0,0,0-.49,7.192v9.694h-3.431Zm59,5.491-2.72,1.676a11.43,11.43,0,0,0-9.62-4.641,11.183,11.183,0,0,0-8.09,3.106,10.1,10.1,0,0,0-3.219,7.548,10.644,10.644,0,0,0,1.481,5.436,10.34,10.34,0,0,0,4.063,3.956,11.9,11.9,0,0,0,5.789,1.408,11.744,11.744,0,0,0,9.6-4.641l2.72,1.774a12.813,12.813,0,0,1-5.134,4.428,16.517,16.517,0,0,1-7.34,1.574,14.569,14.569,0,0,1-10.489-3.985,12.91,12.91,0,0,1-4.166-9.694,13.756,13.756,0,0,1,1.948-7.131,13.673,13.673,0,0,1,5.355-5.139,15.731,15.731,0,0,1,7.622-1.847,16.4,16.4,0,0,1,5.11.8,14.256,14.256,0,0,1,4.178,2.09A11.4,11.4,0,0,1,190.979-180.874Zm31.55,12.173,2.892,1.506a15.643,15.643,0,0,1-3.287,4.471,13.072,13.072,0,0,1-4.195,2.588,14.745,14.745,0,0,1-5.274.887q-6.525,0-10.2-4.24a14.233,14.233,0,0,1-3.68-9.585,14.056,14.056,0,0,1,3.115-8.965,12.777,12.777,0,0,1,10.572-5.005,13.2,13.2,0,0,1,10.891,5.127,14.231,14.231,0,0,1,2.944,9.038H202.311a10.713,10.713,0,0,0,2.969,7.551,9.51,9.51,0,0,0,7.091,2.945,11.486,11.486,0,0,0,3.962-.7,10.445,10.445,0,0,0,3.276-1.864A15.883,15.883,0,0,0,222.529-168.7Zm0-7.119a11.237,11.237,0,0,0-2-4.349,9.453,9.453,0,0,0-3.472-2.624,10.711,10.711,0,0,0-4.539-1,9.825,9.825,0,0,0-6.748,2.5,11.286,11.286,0,0,0-3.116,5.467Zm29.134-19.85h3.6v35.74h-3.6Zm13.807,9.306H268.9v4.738a14.3,14.3,0,0,1,4.558-4.07,11.278,11.278,0,0,1,5.441-1.348,9.513,9.513,0,0,1,5.306,1.506,8.993,8.993,0,0,1,3.419,4.058q1.1,2.551,1.1,7.945v13.606H285.3v-12.61a30.809,30.809,0,0,0-.382-6.1,6.686,6.686,0,0,0-2.287-3.948,6.95,6.95,0,0,0-4.412-1.324,8.506,8.506,0,0,0-5.577,2.041,9.552,9.552,0,0,0-3.248,5.054,34.854,34.854,0,0,0-.49,7.192v9.694h-3.431Zm44.1-10.2v3.329a8.548,8.548,0,0,0-3.235-.8,3.169,3.169,0,0,0-1.666.4,1.778,1.778,0,0,0-.833.923,12.674,12.674,0,0,0-.172,2.782l0,3.572h5.566v2.94h-5.568l-.019,23.495h-3.431v-23.495h-3.5v-2.94h3.5v-4.13a11.122,11.122,0,0,1,.527-4.058,4.179,4.179,0,0,1,1.789-1.956,5.926,5.926,0,0,1,3.051-.741A14.612,14.612,0,0,1,309.569-196.57Zm19.91,9.524a13.258,13.258,0,0,1,10.213,4.422,13.69,13.69,0,0,1,3.683,9.549,13.693,13.693,0,0,1-3.891,9.682,13.113,13.113,0,0,1-10,4.143,13.142,13.142,0,0,1-10.029-4.143,13.693,13.693,0,0,1-3.891-9.682,13.659,13.659,0,0,1,3.683-9.524A13.252,13.252,0,0,1,329.478-187.045Zm-.012,3.329a9.94,9.94,0,0,0-7.353,3.134A10.429,10.429,0,0,0,319.038-173a10.678,10.678,0,0,0,1.4,5.345,9.888,9.888,0,0,0,3.787,3.827,10.462,10.462,0,0,0,5.238,1.348,10.462,10.462,0,0,0,5.238-1.348,9.888,9.888,0,0,0,3.787-3.827,10.678,10.678,0,0,0,1.4-5.345,10.408,10.408,0,0,0-3.087-7.581A9.952,9.952,0,0,0,329.466-183.717Zm25.754-12.464h3.431v9.816h5.441v2.94h-5.441v23.495h-3.431v-23.495H350.54v-2.94h4.681ZM394.2-168.7l2.892,1.506a15.642,15.642,0,0,1-3.287,4.471,13.072,13.072,0,0,1-4.195,2.588,14.745,14.745,0,0,1-5.274.887q-6.525,0-10.2-4.24a14.233,14.233,0,0,1-3.68-9.585,14.056,14.056,0,0,1,3.115-8.965,12.777,12.777,0,0,1,10.572-5.005,13.2,13.2,0,0,1,10.891,5.127,14.231,14.231,0,0,1,2.944,9.038H373.978a10.713,10.713,0,0,0,2.969,7.551,9.51,9.51,0,0,0,7.091,2.945,11.486,11.486,0,0,0,3.962-.7,10.444,10.444,0,0,0,3.276-1.864A15.881,15.881,0,0,0,394.2-168.7Zm0-7.119a11.237,11.237,0,0,0-2-4.349,9.453,9.453,0,0,0-3.472-2.624,10.711,10.711,0,0,0-4.539-1,9.825,9.825,0,0,0-6.748,2.5,11.286,11.286,0,0,0-3.116,5.467Zm38.559-5.054-2.72,1.676a11.43,11.43,0,0,0-9.62-4.641,11.183,11.183,0,0,0-8.09,3.106,10.1,10.1,0,0,0-3.219,7.548,10.644,10.644,0,0,0,1.481,5.436,10.34,10.34,0,0,0,4.063,3.956,11.9,11.9,0,0,0,5.789,1.408,11.744,11.744,0,0,0,9.6-4.641l2.72,1.774a12.813,12.813,0,0,1-5.134,4.428,16.517,16.517,0,0,1-7.34,1.574,14.569,14.569,0,0,1-10.489-3.985,12.91,12.91,0,0,1-4.166-9.694,13.756,13.756,0,0,1,1.948-7.131,13.673,13.673,0,0,1,5.355-5.139,15.731,15.731,0,0,1,7.622-1.847,16.4,16.4,0,0,1,5.11.8,14.255,14.255,0,0,1,4.178,2.09A11.4,11.4,0,0,1,432.756-180.874Zm9.1-15.7h3.431v14.942a14.543,14.543,0,0,1,4.583-4.07,11.229,11.229,0,0,1,5.416-1.348,9.513,9.513,0,0,1,5.306,1.506,9,9,0,0,1,3.419,4.045q1.1,2.539,1.1,7.957v13.606h-3.431v-12.61a31.972,31.972,0,0,0-.368-6.1A6.9,6.9,0,0,0,459-182.587a6.9,6.9,0,0,0-4.4-1.324,8.5,8.5,0,0,0-5.575,2.041,9.553,9.553,0,0,0-3.247,5.054,34.641,34.641,0,0,0-.49,7.192v9.694h-3.431Z" transform="translate(222.885 409.25)" fill="#fff"/>
      <rect id="Rectangle_3" data-name="Rectangle 3" width="4.2" height="36.5" transform="translate(474 213)" fill="#f9d342"/>
    </g>
  </g>
</svg>
